{
    "asset" : {
        "generator" : "Khronos glTF Blender I/O v3.4.50",
        "version" : "2.0"
    },
    "scene" : 0,
    "scenes" : [
        {
            "name" : "Scene",
            "nodes" : [
                0
            ]
        }
    ],
    "nodes" : [
        {
            "mesh" : 0,
            "name" : "Cube.003",
            "scale" : [
                0.030797002837061882,
                0.6159399151802063,
                0.5731338262557983
            ],
            "translation" : [
                -1.0764938592910767,
                3.006134033203125,
                0.16399507224559784
            ]
        }
    ],
    "animations" : [
        {
            "channels" : [
                {
                    "sampler" : 0,
                    "target" : {
                        "node" : 0,
                        "path" : "translation"
                    }
                },
                {
                    "sampler" : 1,
                    "target" : {
                        "node" : 0,
                        "path" : "rotation"
                    }
                }
            ],
            "name" : "Cube.001Action.001",
            "samplers" : [
                {
                    "input" : 16,
                    "interpolation" : "STEP",
                    "output" : 17
                },
                {
                    "input" : 16,
                    "interpolation" : "STEP",
                    "output" : 18
                }
            ]
        },
        {
            "channels" : [
                {
                    "sampler" : 0,
                    "target" : {
                        "node" : 0,
                        "path" : "translation"
                    }
                },
                {
                    "sampler" : 1,
                    "target" : {
                        "node" : 0,
                        "path" : "rotation"
                    }
                }
            ],
            "name" : "Cube.001Action.002",
            "samplers" : [
                {
                    "input" : 16,
                    "interpolation" : "STEP",
                    "output" : 19
                },
                {
                    "input" : 16,
                    "interpolation" : "STEP",
                    "output" : 20
                }
            ]
        },
        {
            "channels" : [
                {
                    "sampler" : 0,
                    "target" : {
                        "node" : 0,
                        "path" : "weights"
                    }
                }
            ],
            "name" : "KeyAction",
            "samplers" : [
                {
                    "input" : 21,
                    "interpolation" : "LINEAR",
                    "output" : 22
                }
            ]
        }
    ],
    "materials" : [
        {
            "doubleSided" : true,
            "name" : "Material.001",
            "pbrMetallicRoughness" : {
                "baseColorFactor" : [
                    0.8000000715255737,
                    0.6155490279197693,
                    0.06358105689287186,
                    1
                ],
                "metallicFactor" : 0,
                "roughnessFactor" : 0.5
            }
        }
    ],
    "meshes" : [
        {
            "extras" : {
                "targetNames" : [
                    "Key 1",
                    "Key 2"
                ]
            },
            "name" : "Cube.007",
            "primitives" : [
                {
                    "attributes" : {
                        "POSITION" : 0,
                        "TEXCOORD_0" : 1,
                        "NORMAL" : 2
                    },
                    "indices" : 3,
                    "material" : 0,
                    "targets" : [
                        {
                            "POSITION" : 4,
                            "NORMAL" : 5
                        },
                        {
                            "POSITION" : 6,
                            "NORMAL" : 7
                        }
                    ]
                },
                {
                    "attributes" : {
                        "POSITION" : 8,
                        "TEXCOORD_0" : 9,
                        "NORMAL" : 10
                    },
                    "indices" : 11,
                    "targets" : [
                        {
                            "POSITION" : 12,
                            "NORMAL" : 13
                        },
                        {
                            "POSITION" : 14,
                            "NORMAL" : 15
                        }
                    ]
                }
            ],
            "weights" : [
                0,
                0
            ]
        }
    ],
    "accessors" : [
        {
            "bufferView" : 0,
            "componentType" : 5126,
            "count" : 188,
            "max" : [
                113.58605194091797,
                1.783098578453064,
                0
            ],
            "min" : [
                111.7903823852539,
                -4.4511399269104,
                -2.4164650440216064
            ],
            "type" : "VEC3"
        },
        {
            "bufferView" : 1,
            "componentType" : 5126,
            "count" : 188,
            "type" : "VEC2"
        },
        {
            "bufferView" : 2,
            "componentType" : 5126,
            "count" : 188,
            "type" : "VEC3"
        },
        {
            "bufferView" : 3,
            "componentType" : 5123,
            "count" : 354,
            "type" : "SCALAR"
        },
        {
            "bufferView" : 4,
            "componentType" : 5126,
            "count" : 188,
            "max" : [
                41.309776306152344,
                3.357705593109131,
                1.9967846870422363
            ],
            "min" : [
                0,
                -3.5555222034454346,
                -0.01834958791732788
            ],
            "type" : "VEC3"
        },
        {
            "bufferView" : 5,
            "componentType" : 5126,
            "count" : 188,
            "type" : "VEC3"
        },
        {
            "bufferView" : 6,
            "componentType" : 5126,
            "count" : 188,
            "max" : [
                0,
                0,
                0
            ],
            "min" : [
                0,
                0,
                0
            ],
            "type" : "VEC3"
        },
        {
            "bufferView" : 7,
            "componentType" : 5126,
            "count" : 188,
            "type" : "VEC3"
        },
        {
            "bufferView" : 8,
            "componentType" : 5126,
            "count" : 358,
            "max" : [
                113.58605194091797,
                1.783098578453064,
                0
            ],
            "min" : [
                111.70865631103516,
                -4.4511399269104,
                -2.4164650440216064
            ],
            "type" : "VEC3"
        },
        {
            "bufferView" : 9,
            "componentType" : 5126,
            "count" : 358,
            "type" : "VEC2"
        },
        {
            "bufferView" : 10,
            "componentType" : 5126,
            "count" : 358,
            "type" : "VEC3"
        },
        {
            "bufferView" : 11,
            "componentType" : 5123,
            "count" : 612,
            "type" : "SCALAR"
        },
        {
            "bufferView" : 12,
            "componentType" : 5126,
            "count" : 358,
            "max" : [
                41.309776306152344,
                3.357705593109131,
                1.9967846870422363
            ],
            "min" : [
                0,
                -3.5555222034454346,
                -0.01834958791732788
            ],
            "type" : "VEC3"
        },
        {
            "bufferView" : 13,
            "componentType" : 5126,
            "count" : 358,
            "type" : "VEC3"
        },
        {
            "bufferView" : 14,
            "componentType" : 5126,
            "count" : 358,
            "max" : [
                0,
                0,
                0
            ],
            "min" : [
                0,
                0,
                0
            ],
            "type" : "VEC3"
        },
        {
            "bufferView" : 15,
            "componentType" : 5126,
            "count" : 358,
            "type" : "VEC3"
        },
        {
            "bufferView" : 16,
            "componentType" : 5126,
            "count" : 1,
            "max" : [
                0.041666666666666664
            ],
            "min" : [
                0.041666666666666664
            ],
            "type" : "SCALAR"
        },
        {
            "bufferView" : 17,
            "componentType" : 5126,
            "count" : 1,
            "type" : "VEC3"
        },
        {
            "bufferView" : 18,
            "componentType" : 5126,
            "count" : 1,
            "type" : "VEC4"
        },
        {
            "bufferView" : 19,
            "componentType" : 5126,
            "count" : 1,
            "type" : "VEC3"
        },
        {
            "bufferView" : 20,
            "componentType" : 5126,
            "count" : 1,
            "type" : "VEC4"
        },
        {
            "bufferView" : 21,
            "componentType" : 5126,
            "count" : 41,
            "max" : [
                1.6666666666666667
            ],
            "min" : [
                0
            ],
            "type" : "SCALAR"
        },
        {
            "bufferView" : 22,
            "componentType" : 5126,
            "count" : 82,
            "type" : "SCALAR"
        }
    ],
    "bufferViews" : [
        {
            "buffer" : 0,
            "byteLength" : 2256,
            "byteOffset" : 0,
            "target" : 34962
        },
        {
            "buffer" : 0,
            "byteLength" : 1504,
            "byteOffset" : 2256,
            "target" : 34962
        },
        {
            "buffer" : 0,
            "byteLength" : 2256,
            "byteOffset" : 3760,
            "target" : 34962
        },
        {
            "buffer" : 0,
            "byteLength" : 708,
            "byteOffset" : 6016,
            "target" : 34963
        },
        {
            "buffer" : 0,
            "byteLength" : 2256,
            "byteOffset" : 6724,
            "target" : 34962
        },
        {
            "buffer" : 0,
            "byteLength" : 2256,
            "byteOffset" : 8980,
            "target" : 34962
        },
        {
            "buffer" : 0,
            "byteLength" : 2256,
            "byteOffset" : 11236,
            "target" : 34962
        },
        {
            "buffer" : 0,
            "byteLength" : 2256,
            "byteOffset" : 13492,
            "target" : 34962
        },
        {
            "buffer" : 0,
            "byteLength" : 4296,
            "byteOffset" : 15748,
            "target" : 34962
        },
        {
            "buffer" : 0,
            "byteLength" : 2864,
            "byteOffset" : 20044,
            "target" : 34962
        },
        {
            "buffer" : 0,
            "byteLength" : 4296,
            "byteOffset" : 22908,
            "target" : 34962
        },
        {
            "buffer" : 0,
            "byteLength" : 1224,
            "byteOffset" : 27204,
            "target" : 34963
        },
        {
            "buffer" : 0,
            "byteLength" : 4296,
            "byteOffset" : 28428,
            "target" : 34962
        },
        {
            "buffer" : 0,
            "byteLength" : 4296,
            "byteOffset" : 32724,
            "target" : 34962
        },
        {
            "buffer" : 0,
            "byteLength" : 4296,
            "byteOffset" : 37020,
            "target" : 34962
        },
        {
            "buffer" : 0,
            "byteLength" : 4296,
            "byteOffset" : 41316,
            "target" : 34962
        },
        {
            "buffer" : 0,
            "byteLength" : 4,
            "byteOffset" : 45612
        },
        {
            "buffer" : 0,
            "byteLength" : 12,
            "byteOffset" : 45616
        },
        {
            "buffer" : 0,
            "byteLength" : 16,
            "byteOffset" : 45628
        },
        {
            "buffer" : 0,
            "byteLength" : 12,
            "byteOffset" : 45644
        },
        {
            "buffer" : 0,
            "byteLength" : 16,
            "byteOffset" : 45656
        },
        {
            "buffer" : 0,
            "byteLength" : 164,
            "byteOffset" : 45672
        },
        {
            "buffer" : 0,
            "byteLength" : 328,
            "byteOffset" : 45836
        }
    ],
    "buffers" : [
        {
            "byteLength" : 46164,
            "uri" : "CAJA.bin"
        }
    ]
}
