{
    "asset" : {
        "generator" : "Khronos glTF Blender I/O v3.4.50",
        "version" : "2.0"
    },
    "scene" : 0,
    "scenes" : [
        {
            "name" : "Scene",
            "nodes" : [
                0
            ]
        }
    ],
    "nodes" : [
        {
            "mesh" : 0,
            "name" : "Plane.001",
            "scale" : [
                0.6094947457313538,
                0.6094947457313538,
                0.5982499122619629
            ],
            "translation" : [
                -2.5942347049713135,
                0,
                0.009271053597331047
            ]
        }
    ],
    "animations" : [
        {
            "channels" : [
                {
                    "sampler" : 0,
                    "target" : {
                        "node" : 0,
                        "path" : "weights"
                    }
                }
            ],
            "name" : "Plane.003Action",
            "samplers" : [
                {
                    "input" : 18,
                    "interpolation" : "LINEAR",
                    "output" : 19
                }
            ]
        }
    ],
    "materials" : [
        {
            "doubleSided" : true,
            "name" : "Material.001",
            "pbrMetallicRoughness" : {
                "baseColorFactor" : [
                    0.800000011920929,
                    0.800000011920929,
                    0.800000011920929,
                    1
                ],
                "metallicFactor" : 0,
                "roughnessFactor" : 0.5
            }
        },
        {
            "doubleSided" : true,
            "name" : "Material.002",
            "pbrMetallicRoughness" : {
                "baseColorFactor" : [
                    0.9035230278968811,
                    0,
                    0.011250347830355167,
                    1
                ],
                "metallicFactor" : 0,
                "roughnessFactor" : 0.5
            }
        },
        {
            "doubleSided" : true,
            "name" : "Material.003",
            "pbrMetallicRoughness" : {
                "baseColorFactor" : [
                    0,
                    0.007462410256266594,
                    0.8000000715255737,
                    1
                ],
                "metallicFactor" : 0,
                "roughnessFactor" : 0.5
            }
        }
    ],
    "meshes" : [
        {
            "extras" : {
                "targetNames" : [
                    "Key 1"
                ]
            },
            "name" : "Plane.003",
            "primitives" : [
                {
                    "attributes" : {
                        "POSITION" : 0,
                        "TEXCOORD_0" : 1,
                        "NORMAL" : 2
                    },
                    "indices" : 3,
                    "material" : 0,
                    "targets" : [
                        {
                            "POSITION" : 4,
                            "NORMAL" : 5
                        }
                    ]
                },
                {
                    "attributes" : {
                        "POSITION" : 6,
                        "TEXCOORD_0" : 7,
                        "NORMAL" : 8
                    },
                    "indices" : 9,
                    "material" : 1,
                    "targets" : [
                        {
                            "POSITION" : 10,
                            "NORMAL" : 11
                        }
                    ]
                },
                {
                    "attributes" : {
                        "POSITION" : 12,
                        "TEXCOORD_0" : 13,
                        "NORMAL" : 14
                    },
                    "indices" : 15,
                    "material" : 2,
                    "targets" : [
                        {
                            "POSITION" : 16,
                            "NORMAL" : 17
                        }
                    ]
                }
            ],
            "weights" : [
                0
            ]
        }
    ],
    "accessors" : [
        {
            "bufferView" : 0,
            "componentType" : 5126,
            "count" : 801,
            "max" : [
                2.3335018157958984,
                0.029999997466802597,
                1.7404102087020874
            ],
            "min" : [
                -2.3335018157958984,
                -0.029999997466802597,
                -4.675456523895264
            ],
            "type" : "VEC3"
        },
        {
            "bufferView" : 1,
            "componentType" : 5126,
            "count" : 801,
            "type" : "VEC2"
        },
        {
            "bufferView" : 2,
            "componentType" : 5126,
            "count" : 801,
            "type" : "VEC3"
        },
        {
            "bufferView" : 3,
            "componentType" : 5123,
            "count" : 1005,
            "type" : "SCALAR"
        },
        {
            "bufferView" : 4,
            "componentType" : 5126,
            "count" : 801,
            "max" : [
                1.3335018157958984,
                1.363501787185669,
                8.344650268554688e-07
            ],
            "min" : [
                -1.3335018157958984,
                -0.006109058856964111,
                -2.384185791015625e-07
            ],
            "type" : "VEC3"
        },
        {
            "bufferView" : 5,
            "componentType" : 5126,
            "count" : 801,
            "type" : "VEC3"
        },
        {
            "bufferView" : 6,
            "componentType" : 5126,
            "count" : 259,
            "max" : [
                2.3335018157958984,
                0,
                1.7404102087020874
            ],
            "min" : [
                -2.3335018157958984,
                -0.029999997466802597,
                -4.675456523895264
            ],
            "type" : "VEC3"
        },
        {
            "bufferView" : 7,
            "componentType" : 5126,
            "count" : 259,
            "type" : "VEC2"
        },
        {
            "bufferView" : 8,
            "componentType" : 5126,
            "count" : 259,
            "type" : "VEC3"
        },
        {
            "bufferView" : 9,
            "componentType" : 5123,
            "count" : 306,
            "type" : "SCALAR"
        },
        {
            "bufferView" : 10,
            "componentType" : 5126,
            "count" : 259,
            "max" : [
                1.303501844406128,
                1.363501787185669,
                8.344650268554688e-07
            ],
            "min" : [
                -1.303501844406128,
                -0.003824833780527115,
                -2.384185791015625e-07
            ],
            "type" : "VEC3"
        },
        {
            "bufferView" : 11,
            "componentType" : 5126,
            "count" : 259,
            "type" : "VEC3"
        },
        {
            "bufferView" : 12,
            "componentType" : 5126,
            "count" : 191,
            "max" : [
                2.3335018157958984,
                0.029999997466802597,
                1.7404102087020874
            ],
            "min" : [
                -2.3335018157958984,
                -0.029999997466802597,
                -4.675456523895264
            ],
            "type" : "VEC3"
        },
        {
            "bufferView" : 13,
            "componentType" : 5126,
            "count" : 191,
            "type" : "VEC2"
        },
        {
            "bufferView" : 14,
            "componentType" : 5126,
            "count" : 191,
            "type" : "VEC3"
        },
        {
            "bufferView" : 15,
            "componentType" : 5123,
            "count" : 321,
            "type" : "SCALAR"
        },
        {
            "bufferView" : 16,
            "componentType" : 5126,
            "count" : 191,
            "max" : [
                1.3335018157958984,
                1.3335018157958984,
                8.344650268554688e-07
            ],
            "min" : [
                -1.3335018157958984,
                -0.006109058856964111,
                -2.384185791015625e-07
            ],
            "type" : "VEC3"
        },
        {
            "bufferView" : 17,
            "componentType" : 5126,
            "count" : 191,
            "type" : "VEC3"
        },
        {
            "bufferView" : 18,
            "componentType" : 5126,
            "count" : 21,
            "max" : [
                0.8333333333333334
            ],
            "min" : [
                0
            ],
            "type" : "SCALAR"
        },
        {
            "bufferView" : 19,
            "componentType" : 5126,
            "count" : 21,
            "type" : "SCALAR"
        }
    ],
    "bufferViews" : [
        {
            "buffer" : 0,
            "byteLength" : 9612,
            "byteOffset" : 0,
            "target" : 34962
        },
        {
            "buffer" : 0,
            "byteLength" : 6408,
            "byteOffset" : 9612,
            "target" : 34962
        },
        {
            "buffer" : 0,
            "byteLength" : 9612,
            "byteOffset" : 16020,
            "target" : 34962
        },
        {
            "buffer" : 0,
            "byteLength" : 2010,
            "byteOffset" : 25632,
            "target" : 34963
        },
        {
            "buffer" : 0,
            "byteLength" : 9612,
            "byteOffset" : 27644,
            "target" : 34962
        },
        {
            "buffer" : 0,
            "byteLength" : 9612,
            "byteOffset" : 37256,
            "target" : 34962
        },
        {
            "buffer" : 0,
            "byteLength" : 3108,
            "byteOffset" : 46868,
            "target" : 34962
        },
        {
            "buffer" : 0,
            "byteLength" : 2072,
            "byteOffset" : 49976,
            "target" : 34962
        },
        {
            "buffer" : 0,
            "byteLength" : 3108,
            "byteOffset" : 52048,
            "target" : 34962
        },
        {
            "buffer" : 0,
            "byteLength" : 612,
            "byteOffset" : 55156,
            "target" : 34963
        },
        {
            "buffer" : 0,
            "byteLength" : 3108,
            "byteOffset" : 55768,
            "target" : 34962
        },
        {
            "buffer" : 0,
            "byteLength" : 3108,
            "byteOffset" : 58876,
            "target" : 34962
        },
        {
            "buffer" : 0,
            "byteLength" : 2292,
            "byteOffset" : 61984,
            "target" : 34962
        },
        {
            "buffer" : 0,
            "byteLength" : 1528,
            "byteOffset" : 64276,
            "target" : 34962
        },
        {
            "buffer" : 0,
            "byteLength" : 2292,
            "byteOffset" : 65804,
            "target" : 34962
        },
        {
            "buffer" : 0,
            "byteLength" : 642,
            "byteOffset" : 68096,
            "target" : 34963
        },
        {
            "buffer" : 0,
            "byteLength" : 2292,
            "byteOffset" : 68740,
            "target" : 34962
        },
        {
            "buffer" : 0,
            "byteLength" : 2292,
            "byteOffset" : 71032,
            "target" : 34962
        },
        {
            "buffer" : 0,
            "byteLength" : 84,
            "byteOffset" : 73324
        },
        {
            "buffer" : 0,
            "byteLength" : 84,
            "byteOffset" : 73408
        }
    ],
    "buffers" : [
        {
            "byteLength" : 73492,
            "uri" : "francia.bin"
        }
    ]
}
