{
    "asset" : {
        "generator" : "Khronos glTF Blender I/O v3.4.50",
        "version" : "2.0"
    },
    "scene" : 0,
    "scenes" : [
        {
            "name" : "Scene",
            "nodes" : [
                0
            ]
        }
    ],
    "nodes" : [
        {
            "mesh" : 0,
            "name" : "Plane",
            "scale" : [
                1.0213557481765747,
                1.0213557481765747,
                1.0213557481765747
            ]
        }
    ],
    "animations" : [
        {
            "channels" : [
                {
                    "sampler" : 0,
                    "target" : {
                        "node" : 0,
                        "path" : "weights"
                    }
                }
            ],
            "name" : "Key.003Action",
            "samplers" : [
                {
                    "input" : 42,
                    "interpolation" : "LINEAR",
                    "output" : 43
                }
            ]
        },
        {
            "channels" : [
                {
                    "sampler" : 0,
                    "target" : {
                        "node" : 0,
                        "path" : "weights"
                    }
                }
            ],
            "name" : "Key.003Action.001",
            "samplers" : [
                {
                    "input" : 44,
                    "interpolation" : "LINEAR",
                    "output" : 45
                }
            ]
        }
    ],
    "materials" : [
        {
            "doubleSided" : true,
            "name" : "Material.001",
            "pbrMetallicRoughness" : {
                "baseColorFactor" : [
                    0.004391479771584272,
                    0,
                    0.8000000715255737,
                    1
                ],
                "metallicFactor" : 0,
                "roughnessFactor" : 0.5
            }
        },
        {
            "doubleSided" : true,
            "name" : "Material.002",
            "pbrMetallicRoughness" : {
                "baseColorFactor" : [
                    0.8000000715255737,
                    0.0060381037183105946,
                    0,
                    1
                ],
                "metallicFactor" : 0,
                "roughnessFactor" : 0.5
            }
        }
    ],
    "meshes" : [
        {
            "extras" : {
                "targetNames" : [
                    "Key 1",
                    "Key 2",
                    "Key 3",
                    "Key 4",
                    "Key 5"
                ]
            },
            "name" : "Plane.001",
            "primitives" : [
                {
                    "attributes" : {
                        "POSITION" : 0,
                        "TEXCOORD_0" : 1,
                        "NORMAL" : 2
                    },
                    "indices" : 3,
                    "targets" : [
                        {
                            "POSITION" : 4,
                            "NORMAL" : 5
                        },
                        {
                            "POSITION" : 6,
                            "NORMAL" : 7
                        },
                        {
                            "POSITION" : 8,
                            "NORMAL" : 9
                        },
                        {
                            "POSITION" : 10,
                            "NORMAL" : 11
                        },
                        {
                            "POSITION" : 12,
                            "NORMAL" : 13
                        }
                    ]
                },
                {
                    "attributes" : {
                        "POSITION" : 14,
                        "TEXCOORD_0" : 15,
                        "NORMAL" : 16
                    },
                    "indices" : 17,
                    "material" : 0,
                    "targets" : [
                        {
                            "POSITION" : 18,
                            "NORMAL" : 19
                        },
                        {
                            "POSITION" : 20,
                            "NORMAL" : 21
                        },
                        {
                            "POSITION" : 22,
                            "NORMAL" : 23
                        },
                        {
                            "POSITION" : 24,
                            "NORMAL" : 25
                        },
                        {
                            "POSITION" : 26,
                            "NORMAL" : 27
                        }
                    ]
                },
                {
                    "attributes" : {
                        "POSITION" : 28,
                        "TEXCOORD_0" : 29,
                        "NORMAL" : 30
                    },
                    "indices" : 31,
                    "material" : 1,
                    "targets" : [
                        {
                            "POSITION" : 32,
                            "NORMAL" : 33
                        },
                        {
                            "POSITION" : 34,
                            "NORMAL" : 35
                        },
                        {
                            "POSITION" : 36,
                            "NORMAL" : 37
                        },
                        {
                            "POSITION" : 38,
                            "NORMAL" : 39
                        },
                        {
                            "POSITION" : 40,
                            "NORMAL" : 41
                        }
                    ]
                }
            ],
            "weights" : [
                0,
                0,
                0,
                0,
                0
            ]
        }
    ],
    "accessors" : [
        {
            "bufferView" : 0,
            "componentType" : 5126,
            "count" : 188,
            "max" : [
                2.4694888591766357,
                0.030399393290281296,
                4.840765953063965
            ],
            "min" : [
                -2.4694888591766357,
                0.019999802112579346,
                -1.8118653297424316
            ],
            "type" : "VEC3"
        },
        {
            "bufferView" : 1,
            "componentType" : 5126,
            "count" : 188,
            "type" : "VEC2"
        },
        {
            "bufferView" : 2,
            "componentType" : 5126,
            "count" : 188,
            "type" : "VEC3"
        },
        {
            "bufferView" : 3,
            "componentType" : 5123,
            "count" : 336,
            "type" : "SCALAR"
        },
        {
            "bufferView" : 4,
            "componentType" : 5126,
            "count" : 188,
            "max" : [
                1.4036298990249634,
                0,
                1.1920928955078125e-07
            ],
            "min" : [
                -1.4036298990249634,
                -1.4436297416687012,
                -1.7881393432617188e-07
            ],
            "type" : "VEC3"
        },
        {
            "bufferView" : 5,
            "componentType" : 5126,
            "count" : 188,
            "type" : "VEC3"
        },
        {
            "bufferView" : 6,
            "componentType" : 5126,
            "count" : 188,
            "max" : [
                2.142544984817505,
                0,
                3.8722329139709473
            ],
            "min" : [
                -2.142544984817505,
                -3.7397356033325195,
                -1.4242713451385498
            ],
            "type" : "VEC3"
        },
        {
            "bufferView" : 7,
            "componentType" : 5126,
            "count" : 188,
            "type" : "VEC3"
        },
        {
            "bufferView" : 8,
            "componentType" : 5126,
            "count" : 188,
            "max" : [
                1.5063711404800415,
                0,
                5.899218559265137
            ],
            "min" : [
                -1.5063711404800415,
                -2.86293888092041,
                -1.4242713451385498
            ],
            "type" : "VEC3"
        },
        {
            "bufferView" : 9,
            "componentType" : 5126,
            "count" : 188,
            "type" : "VEC3"
        },
        {
            "bufferView" : 10,
            "componentType" : 5126,
            "count" : 188,
            "max" : [
                1.5063711404800415,
                0,
                6.7855939865112305
            ],
            "min" : [
                -1.5063711404800415,
                -0.7691507935523987,
                -1.4242713451385498
            ],
            "type" : "VEC3"
        },
        {
            "bufferView" : 11,
            "componentType" : 5126,
            "count" : 188,
            "type" : "VEC3"
        },
        {
            "bufferView" : 12,
            "componentType" : 5126,
            "count" : 188,
            "max" : [
                1.5063711404800415,
                0,
                6.0605974197387695
            ],
            "min" : [
                -1.5063711404800415,
                -0.757921576499939,
                -1.4242713451385498
            ],
            "type" : "VEC3"
        },
        {
            "bufferView" : 13,
            "componentType" : 5126,
            "count" : 188,
            "type" : "VEC3"
        },
        {
            "bufferView" : 14,
            "componentType" : 5126,
            "count" : 180,
            "max" : [
                2.4694888591766357,
                0.010402441024780273,
                4.840765953063965
            ],
            "min" : [
                -2.4694888591766357,
                0,
                -1.8118653297424316
            ],
            "type" : "VEC3"
        },
        {
            "bufferView" : 15,
            "componentType" : 5126,
            "count" : 180,
            "type" : "VEC2"
        },
        {
            "bufferView" : 16,
            "componentType" : 5126,
            "count" : 180,
            "type" : "VEC3"
        },
        {
            "bufferView" : 17,
            "componentType" : 5123,
            "count" : 336,
            "type" : "SCALAR"
        },
        {
            "bufferView" : 18,
            "componentType" : 5126,
            "count" : 180,
            "max" : [
                1.423629879951477,
                5.960464477539063e-08,
                1.1920928955078125e-07
            ],
            "min" : [
                -1.423629879951477,
                -1.4236297607421875,
                -1.7881393432617188e-07
            ],
            "type" : "VEC3"
        },
        {
            "bufferView" : 19,
            "componentType" : 5126,
            "count" : 180,
            "type" : "VEC3"
        },
        {
            "bufferView" : 20,
            "componentType" : 5126,
            "count" : 180,
            "max" : [
                2.142544746398926,
                5.960464477539063e-08,
                3.8722329139709473
            ],
            "min" : [
                -2.142544746398926,
                -3.719735622406006,
                -1.4242713451385498
            ],
            "type" : "VEC3"
        },
        {
            "bufferView" : 21,
            "componentType" : 5126,
            "count" : 180,
            "type" : "VEC3"
        },
        {
            "bufferView" : 22,
            "componentType" : 5126,
            "count" : 180,
            "max" : [
                1.4863711595535278,
                5.960464477539063e-08,
                5.899218559265137
            ],
            "min" : [
                -1.4863711595535278,
                -2.828796863555908,
                -1.4242713451385498
            ],
            "type" : "VEC3"
        },
        {
            "bufferView" : 23,
            "componentType" : 5126,
            "count" : 180,
            "type" : "VEC3"
        },
        {
            "bufferView" : 24,
            "componentType" : 5126,
            "count" : 180,
            "max" : [
                1.4863711595535278,
                5.960464477539063e-08,
                6.785879611968994
            ],
            "min" : [
                -1.4863711595535278,
                -0.7359215021133423,
                -1.4242713451385498
            ],
            "type" : "VEC3"
        },
        {
            "bufferView" : 25,
            "componentType" : 5126,
            "count" : 180,
            "type" : "VEC3"
        },
        {
            "bufferView" : 26,
            "componentType" : 5126,
            "count" : 180,
            "max" : [
                1.4863711595535278,
                0.015157818794250488,
                6.040600299835205
            ],
            "min" : [
                -1.4863711595535278,
                -0.7359215021133423,
                -1.4242713451385498
            ],
            "type" : "VEC3"
        },
        {
            "bufferView" : 27,
            "componentType" : 5126,
            "count" : 180,
            "type" : "VEC3"
        },
        {
            "bufferView" : 28,
            "componentType" : 5126,
            "count" : 396,
            "max" : [
                2.4694888591766357,
                0.030399393290281296,
                4.840765953063965
            ],
            "min" : [
                -2.4694888591766357,
                0,
                -1.8118653297424316
            ],
            "type" : "VEC3"
        },
        {
            "bufferView" : 29,
            "componentType" : 5126,
            "count" : 396,
            "type" : "VEC2"
        },
        {
            "bufferView" : 30,
            "componentType" : 5126,
            "count" : 396,
            "type" : "VEC3"
        },
        {
            "bufferView" : 31,
            "componentType" : 5123,
            "count" : 618,
            "type" : "SCALAR"
        },
        {
            "bufferView" : 32,
            "componentType" : 5126,
            "count" : 396,
            "max" : [
                1.423629879951477,
                5.960464477539063e-08,
                1.1920928955078125e-07
            ],
            "min" : [
                -1.423629879951477,
                -1.4436297416687012,
                -1.7881393432617188e-07
            ],
            "type" : "VEC3"
        },
        {
            "bufferView" : 33,
            "componentType" : 5126,
            "count" : 396,
            "type" : "VEC3"
        },
        {
            "bufferView" : 34,
            "componentType" : 5126,
            "count" : 396,
            "max" : [
                2.142544984817505,
                5.960464477539063e-08,
                3.8722329139709473
            ],
            "min" : [
                -2.142544984817505,
                -3.7397356033325195,
                -1.4242713451385498
            ],
            "type" : "VEC3"
        },
        {
            "bufferView" : 35,
            "componentType" : 5126,
            "count" : 396,
            "type" : "VEC3"
        },
        {
            "bufferView" : 36,
            "componentType" : 5126,
            "count" : 396,
            "max" : [
                1.5063711404800415,
                5.960464477539063e-08,
                5.899218559265137
            ],
            "min" : [
                -1.5063711404800415,
                -2.86293888092041,
                -1.4242713451385498
            ],
            "type" : "VEC3"
        },
        {
            "bufferView" : 37,
            "componentType" : 5126,
            "count" : 396,
            "type" : "VEC3"
        },
        {
            "bufferView" : 38,
            "componentType" : 5126,
            "count" : 396,
            "max" : [
                1.5063711404800415,
                5.960464477539063e-08,
                6.785879611968994
            ],
            "min" : [
                -1.5063711404800415,
                -0.7691507935523987,
                -1.4242713451385498
            ],
            "type" : "VEC3"
        },
        {
            "bufferView" : 39,
            "componentType" : 5126,
            "count" : 396,
            "type" : "VEC3"
        },
        {
            "bufferView" : 40,
            "componentType" : 5126,
            "count" : 396,
            "max" : [
                1.5063711404800415,
                0.015157818794250488,
                6.0605974197387695
            ],
            "min" : [
                -1.5063711404800415,
                -0.757921576499939,
                -1.4242713451385498
            ],
            "type" : "VEC3"
        },
        {
            "bufferView" : 41,
            "componentType" : 5126,
            "count" : 396,
            "type" : "VEC3"
        },
        {
            "bufferView" : 42,
            "componentType" : 5126,
            "count" : 101,
            "max" : [
                4.166666666666667
            ],
            "min" : [
                0
            ],
            "type" : "SCALAR"
        },
        {
            "bufferView" : 43,
            "componentType" : 5126,
            "count" : 505,
            "type" : "SCALAR"
        },
        {
            "bufferView" : 44,
            "componentType" : 5126,
            "count" : 61,
            "max" : [
                4.166666666666667
            ],
            "min" : [
                1.6666666666666667
            ],
            "type" : "SCALAR"
        },
        {
            "bufferView" : 45,
            "componentType" : 5126,
            "count" : 305,
            "type" : "SCALAR"
        }
    ],
    "bufferViews" : [
        {
            "buffer" : 0,
            "byteLength" : 2256,
            "byteOffset" : 0,
            "target" : 34962
        },
        {
            "buffer" : 0,
            "byteLength" : 1504,
            "byteOffset" : 2256,
            "target" : 34962
        },
        {
            "buffer" : 0,
            "byteLength" : 2256,
            "byteOffset" : 3760,
            "target" : 34962
        },
        {
            "buffer" : 0,
            "byteLength" : 672,
            "byteOffset" : 6016,
            "target" : 34963
        },
        {
            "buffer" : 0,
            "byteLength" : 2256,
            "byteOffset" : 6688,
            "target" : 34962
        },
        {
            "buffer" : 0,
            "byteLength" : 2256,
            "byteOffset" : 8944,
            "target" : 34962
        },
        {
            "buffer" : 0,
            "byteLength" : 2256,
            "byteOffset" : 11200,
            "target" : 34962
        },
        {
            "buffer" : 0,
            "byteLength" : 2256,
            "byteOffset" : 13456,
            "target" : 34962
        },
        {
            "buffer" : 0,
            "byteLength" : 2256,
            "byteOffset" : 15712,
            "target" : 34962
        },
        {
            "buffer" : 0,
            "byteLength" : 2256,
            "byteOffset" : 17968,
            "target" : 34962
        },
        {
            "buffer" : 0,
            "byteLength" : 2256,
            "byteOffset" : 20224,
            "target" : 34962
        },
        {
            "buffer" : 0,
            "byteLength" : 2256,
            "byteOffset" : 22480,
            "target" : 34962
        },
        {
            "buffer" : 0,
            "byteLength" : 2256,
            "byteOffset" : 24736,
            "target" : 34962
        },
        {
            "buffer" : 0,
            "byteLength" : 2256,
            "byteOffset" : 26992,
            "target" : 34962
        },
        {
            "buffer" : 0,
            "byteLength" : 2160,
            "byteOffset" : 29248,
            "target" : 34962
        },
        {
            "buffer" : 0,
            "byteLength" : 1440,
            "byteOffset" : 31408,
            "target" : 34962
        },
        {
            "buffer" : 0,
            "byteLength" : 2160,
            "byteOffset" : 32848,
            "target" : 34962
        },
        {
            "buffer" : 0,
            "byteLength" : 672,
            "byteOffset" : 35008,
            "target" : 34963
        },
        {
            "buffer" : 0,
            "byteLength" : 2160,
            "byteOffset" : 35680,
            "target" : 34962
        },
        {
            "buffer" : 0,
            "byteLength" : 2160,
            "byteOffset" : 37840,
            "target" : 34962
        },
        {
            "buffer" : 0,
            "byteLength" : 2160,
            "byteOffset" : 40000,
            "target" : 34962
        },
        {
            "buffer" : 0,
            "byteLength" : 2160,
            "byteOffset" : 42160,
            "target" : 34962
        },
        {
            "buffer" : 0,
            "byteLength" : 2160,
            "byteOffset" : 44320,
            "target" : 34962
        },
        {
            "buffer" : 0,
            "byteLength" : 2160,
            "byteOffset" : 46480,
            "target" : 34962
        },
        {
            "buffer" : 0,
            "byteLength" : 2160,
            "byteOffset" : 48640,
            "target" : 34962
        },
        {
            "buffer" : 0,
            "byteLength" : 2160,
            "byteOffset" : 50800,
            "target" : 34962
        },
        {
            "buffer" : 0,
            "byteLength" : 2160,
            "byteOffset" : 52960,
            "target" : 34962
        },
        {
            "buffer" : 0,
            "byteLength" : 2160,
            "byteOffset" : 55120,
            "target" : 34962
        },
        {
            "buffer" : 0,
            "byteLength" : 4752,
            "byteOffset" : 57280,
            "target" : 34962
        },
        {
            "buffer" : 0,
            "byteLength" : 3168,
            "byteOffset" : 62032,
            "target" : 34962
        },
        {
            "buffer" : 0,
            "byteLength" : 4752,
            "byteOffset" : 65200,
            "target" : 34962
        },
        {
            "buffer" : 0,
            "byteLength" : 1236,
            "byteOffset" : 69952,
            "target" : 34963
        },
        {
            "buffer" : 0,
            "byteLength" : 4752,
            "byteOffset" : 71188,
            "target" : 34962
        },
        {
            "buffer" : 0,
            "byteLength" : 4752,
            "byteOffset" : 75940,
            "target" : 34962
        },
        {
            "buffer" : 0,
            "byteLength" : 4752,
            "byteOffset" : 80692,
            "target" : 34962
        },
        {
            "buffer" : 0,
            "byteLength" : 4752,
            "byteOffset" : 85444,
            "target" : 34962
        },
        {
            "buffer" : 0,
            "byteLength" : 4752,
            "byteOffset" : 90196,
            "target" : 34962
        },
        {
            "buffer" : 0,
            "byteLength" : 4752,
            "byteOffset" : 94948,
            "target" : 34962
        },
        {
            "buffer" : 0,
            "byteLength" : 4752,
            "byteOffset" : 99700,
            "target" : 34962
        },
        {
            "buffer" : 0,
            "byteLength" : 4752,
            "byteOffset" : 104452,
            "target" : 34962
        },
        {
            "buffer" : 0,
            "byteLength" : 4752,
            "byteOffset" : 109204,
            "target" : 34962
        },
        {
            "buffer" : 0,
            "byteLength" : 4752,
            "byteOffset" : 113956,
            "target" : 34962
        },
        {
            "buffer" : 0,
            "byteLength" : 404,
            "byteOffset" : 118708
        },
        {
            "buffer" : 0,
            "byteLength" : 2020,
            "byteOffset" : 119112
        },
        {
            "buffer" : 0,
            "byteLength" : 244,
            "byteOffset" : 121132
        },
        {
            "buffer" : 0,
            "byteLength" : 1220,
            "byteOffset" : 121376
        }
    ],
    "buffers" : [
        {
            "byteLength" : 122596,
            "uri" : "PLANOS.bin"
        }
    ]
}
