{
    "asset" : {
        "generator" : "Khronos glTF Blender I/O v3.4.50",
        "version" : "2.0"
    },
    "scene" : 0,
    "scenes" : [
        {
            "name" : "Scene",
            "nodes" : [
                0
            ]
        }
    ],
    "nodes" : [
        {
            "mesh" : 0,
            "name" : "Plane.001",
            "scale" : [
                0.6094947457313538,
                0.6094947457313538,
                0.5982498526573181
            ],
            "translation" : [
                -0.006180701777338982,
                0,
                -0.25340723991394043
            ]
        }
    ],
    "animations" : [
        {
            "channels" : [
                {
                    "sampler" : 0,
                    "target" : {
                        "node" : 0,
                        "path" : "weights"
                    }
                }
            ],
            "name" : "KeyAction",
            "samplers" : [
                {
                    "input" : 40,
                    "interpolation" : "LINEAR",
                    "output" : 41
                }
            ]
        },
        {
            "channels" : [
                {
                    "sampler" : 0,
                    "target" : {
                        "node" : 0,
                        "path" : "translation"
                    }
                }
            ],
            "name" : "Plane.001Action",
            "samplers" : [
                {
                    "input" : 42,
                    "interpolation" : "LINEAR",
                    "output" : 43
                }
            ]
        }
    ],
    "materials" : [
        {
            "doubleSided" : true,
            "name" : "Material.010",
            "pbrMetallicRoughness" : {
                "baseColorFactor" : [
                    0,
                    0.026040421798825264,
                    0.8000000715255737,
                    1
                ],
                "metallicFactor" : 0,
                "roughnessFactor" : 0.5
            }
        },
        {
            "doubleSided" : true,
            "name" : "Material.011",
            "pbrMetallicRoughness" : {
                "baseColorFactor" : [
                    0.8000000715255737,
                    0,
                    0.059352975338697433,
                    1
                ],
                "metallicFactor" : 0,
                "roughnessFactor" : 0.5
            }
        }
    ],
    "meshes" : [
        {
            "extras" : {
                "targetNames" : [
                    "Key 1",
                    "Key 2",
                    "Key 3",
                    "Key 4",
                    "Key 5",
                    "Key 6",
                    "Key 7",
                    "Key 8"
                ]
            },
            "name" : "Plane.007",
            "primitives" : [
                {
                    "attributes" : {
                        "POSITION" : 0,
                        "TEXCOORD_0" : 1,
                        "NORMAL" : 2
                    },
                    "indices" : 3,
                    "material" : 0,
                    "targets" : [
                        {
                            "POSITION" : 4,
                            "NORMAL" : 5
                        },
                        {
                            "POSITION" : 6,
                            "NORMAL" : 7
                        },
                        {
                            "POSITION" : 8,
                            "NORMAL" : 9
                        },
                        {
                            "POSITION" : 10,
                            "NORMAL" : 11
                        },
                        {
                            "POSITION" : 12,
                            "NORMAL" : 13
                        },
                        {
                            "POSITION" : 14,
                            "NORMAL" : 15
                        },
                        {
                            "POSITION" : 16,
                            "NORMAL" : 17
                        },
                        {
                            "POSITION" : 18,
                            "NORMAL" : 19
                        }
                    ]
                },
                {
                    "attributes" : {
                        "POSITION" : 20,
                        "TEXCOORD_0" : 21,
                        "NORMAL" : 22
                    },
                    "indices" : 23,
                    "material" : 1,
                    "targets" : [
                        {
                            "POSITION" : 24,
                            "NORMAL" : 25
                        },
                        {
                            "POSITION" : 26,
                            "NORMAL" : 27
                        },
                        {
                            "POSITION" : 28,
                            "NORMAL" : 29
                        },
                        {
                            "POSITION" : 30,
                            "NORMAL" : 31
                        },
                        {
                            "POSITION" : 32,
                            "NORMAL" : 33
                        },
                        {
                            "POSITION" : 34,
                            "NORMAL" : 35
                        },
                        {
                            "POSITION" : 36,
                            "NORMAL" : 37
                        },
                        {
                            "POSITION" : 38,
                            "NORMAL" : 39
                        }
                    ]
                }
            ],
            "weights" : [
                1,
                1,
                1,
                0,
                0,
                0,
                0,
                0
            ]
        }
    ],
    "accessors" : [
        {
            "bufferView" : 0,
            "componentType" : 5126,
            "count" : 1216,
            "max" : [
                2.3335018157958984,
                0.029999997466802597,
                1.7404102087020874
            ],
            "min" : [
                -2.3335018157958984,
                -0.029999997466802597,
                -4.675456523895264
            ],
            "type" : "VEC3"
        },
        {
            "bufferView" : 1,
            "componentType" : 5126,
            "count" : 1216,
            "type" : "VEC2"
        },
        {
            "bufferView" : 2,
            "componentType" : 5126,
            "count" : 1216,
            "type" : "VEC3"
        },
        {
            "bufferView" : 3,
            "componentType" : 5123,
            "count" : 1344,
            "type" : "SCALAR"
        },
        {
            "bufferView" : 4,
            "componentType" : 5126,
            "count" : 1216,
            "max" : [
                1.3335018157958984,
                1.363501787185669,
                8.344650268554688e-07
            ],
            "min" : [
                -1.3335018157958984,
                -0.006109058856964111,
                -2.384185791015625e-07
            ],
            "type" : "VEC3"
        },
        {
            "bufferView" : 5,
            "componentType" : 5126,
            "count" : 1216,
            "type" : "VEC3"
        },
        {
            "bufferView" : 6,
            "componentType" : 5126,
            "count" : 1216,
            "max" : [
                2.0027878284454346,
                0.7242156863212585,
                8.344650268554688e-07
            ],
            "min" : [
                -2.0027878284454346,
                -0.006109058856964111,
                -4.76837158203125e-07
            ],
            "type" : "VEC3"
        },
        {
            "bufferView" : 7,
            "componentType" : 5126,
            "count" : 1216,
            "type" : "VEC3"
        },
        {
            "bufferView" : 8,
            "componentType" : 5126,
            "count" : 1216,
            "max" : [
                1.404599905014038,
                3.564633369445801,
                3.6061599254608154
            ],
            "min" : [
                -1.404599905014038,
                -5.960464477539062e-07,
                -1.3821203708648682
            ],
            "type" : "VEC3"
        },
        {
            "bufferView" : 9,
            "componentType" : 5126,
            "count" : 1216,
            "type" : "VEC3"
        },
        {
            "bufferView" : 10,
            "componentType" : 5126,
            "count" : 1216,
            "max" : [
                1.404599905014038,
                3.564633369445801,
                3.736400604248047
            ],
            "min" : [
                -1.404599905014038,
                -5.960464477539062e-07,
                -1.3821203708648682
            ],
            "type" : "VEC3"
        },
        {
            "bufferView" : 11,
            "componentType" : 5126,
            "count" : 1216,
            "type" : "VEC3"
        },
        {
            "bufferView" : 12,
            "componentType" : 5126,
            "count" : 1216,
            "max" : [
                1.404599905014038,
                2.7612013816833496,
                5.636901378631592
            ],
            "min" : [
                -1.404599905014038,
                -5.960464477539062e-07,
                -1.3821203708648682
            ],
            "type" : "VEC3"
        },
        {
            "bufferView" : 13,
            "componentType" : 5126,
            "count" : 1216,
            "type" : "VEC3"
        },
        {
            "bufferView" : 14,
            "componentType" : 5126,
            "count" : 1216,
            "max" : [
                1.404599905014038,
                0.7973513007164001,
                6.470189094543457
            ],
            "min" : [
                -1.404599905014038,
                -5.960464477539062e-07,
                -1.3821203708648682
            ],
            "type" : "VEC3"
        },
        {
            "bufferView" : 15,
            "componentType" : 5126,
            "count" : 1216,
            "type" : "VEC3"
        },
        {
            "bufferView" : 16,
            "componentType" : 5126,
            "count" : 1216,
            "max" : [
                1.404599905014038,
                0.7973513007164001,
                6.260893821716309
            ],
            "min" : [
                -1.404599905014038,
                -5.960464477539062e-07,
                -1.3821203708648682
            ],
            "type" : "VEC3"
        },
        {
            "bufferView" : 17,
            "componentType" : 5126,
            "count" : 1216,
            "type" : "VEC3"
        },
        {
            "bufferView" : 18,
            "componentType" : 5126,
            "count" : 1216,
            "max" : [
                1.404599905014038,
                0.7973513007164001,
                5.760189056396484
            ],
            "min" : [
                -1.404599905014038,
                -0.04000002145767212,
                -1.3821203708648682
            ],
            "type" : "VEC3"
        },
        {
            "bufferView" : 19,
            "componentType" : 5126,
            "count" : 1216,
            "type" : "VEC3"
        },
        {
            "bufferView" : 20,
            "componentType" : 5126,
            "count" : 266,
            "max" : [
                2.3335018157958984,
                0,
                1.7404102087020874
            ],
            "min" : [
                -2.3335018157958984,
                0,
                -4.675456523895264
            ],
            "type" : "VEC3"
        },
        {
            "bufferView" : 21,
            "componentType" : 5126,
            "count" : 266,
            "type" : "VEC2"
        },
        {
            "bufferView" : 22,
            "componentType" : 5126,
            "count" : 266,
            "type" : "VEC3"
        },
        {
            "bufferView" : 23,
            "componentType" : 5123,
            "count" : 288,
            "type" : "SCALAR"
        },
        {
            "bufferView" : 24,
            "componentType" : 5126,
            "count" : 266,
            "max" : [
                1.3335018157958984,
                1.3335018157958984,
                8.344650268554688e-07
            ],
            "min" : [
                -1.3335018157958984,
                -0.006109058856964111,
                -2.384185791015625e-07
            ],
            "type" : "VEC3"
        },
        {
            "bufferView" : 25,
            "componentType" : 5126,
            "count" : 266,
            "type" : "VEC3"
        },
        {
            "bufferView" : 26,
            "componentType" : 5126,
            "count" : 266,
            "max" : [
                2.0027878284454346,
                0.6642157435417175,
                8.344650268554688e-07
            ],
            "min" : [
                -2.0027878284454346,
                -0.006109058856964111,
                -4.76837158203125e-07
            ],
            "type" : "VEC3"
        },
        {
            "bufferView" : 27,
            "componentType" : 5126,
            "count" : 266,
            "type" : "VEC3"
        },
        {
            "bufferView" : 28,
            "componentType" : 5126,
            "count" : 266,
            "max" : [
                1.3745999336242676,
                3.5346333980560303,
                3.601071357727051
            ],
            "min" : [
                -1.3745999336242676,
                -5.960464477539062e-07,
                -1.3821203708648682
            ],
            "type" : "VEC3"
        },
        {
            "bufferView" : 29,
            "componentType" : 5126,
            "count" : 266,
            "type" : "VEC3"
        },
        {
            "bufferView" : 30,
            "componentType" : 5126,
            "count" : 266,
            "max" : [
                1.3745999336242676,
                3.5346333980560303,
                3.736400604248047
            ],
            "min" : [
                -1.3745999336242676,
                -5.960464477539062e-07,
                -1.3821203708648682
            ],
            "type" : "VEC3"
        },
        {
            "bufferView" : 31,
            "componentType" : 5126,
            "count" : 266,
            "type" : "VEC3"
        },
        {
            "bufferView" : 32,
            "componentType" : 5126,
            "count" : 266,
            "max" : [
                1.3745999336242676,
                2.709791660308838,
                5.636901378631592
            ],
            "min" : [
                -1.3745999336242676,
                -5.960464477539062e-07,
                -1.3821203708648682
            ],
            "type" : "VEC3"
        },
        {
            "bufferView" : 33,
            "componentType" : 5126,
            "count" : 266,
            "type" : "VEC3"
        },
        {
            "bufferView" : 34,
            "componentType" : 5126,
            "count" : 266,
            "max" : [
                1.3745999336242676,
                0.7673513293266296,
                6.470189094543457
            ],
            "min" : [
                -1.3745999336242676,
                -5.960464477539062e-07,
                -1.3821203708648682
            ],
            "type" : "VEC3"
        },
        {
            "bufferView" : 35,
            "componentType" : 5126,
            "count" : 266,
            "type" : "VEC3"
        },
        {
            "bufferView" : 36,
            "componentType" : 5126,
            "count" : 266,
            "max" : [
                1.3745999336242676,
                0.7673513293266296,
                6.2398786544799805
            ],
            "min" : [
                -1.3745999336242676,
                -5.960464477539062e-07,
                -1.3821203708648682
            ],
            "type" : "VEC3"
        },
        {
            "bufferView" : 37,
            "componentType" : 5126,
            "count" : 266,
            "type" : "VEC3"
        },
        {
            "bufferView" : 38,
            "componentType" : 5126,
            "count" : 266,
            "max" : [
                1.3745999336242676,
                0.7673513293266296,
                5.730189323425293
            ],
            "min" : [
                -1.3745999336242676,
                -0.03453606367111206,
                -1.3821203708648682
            ],
            "type" : "VEC3"
        },
        {
            "bufferView" : 39,
            "componentType" : 5126,
            "count" : 266,
            "type" : "VEC3"
        },
        {
            "bufferView" : 40,
            "componentType" : 5126,
            "count" : 20,
            "max" : [
                0.8333333333333334
            ],
            "min" : [
                0.041666666666666664
            ],
            "type" : "SCALAR"
        },
        {
            "bufferView" : 41,
            "componentType" : 5126,
            "count" : 160,
            "type" : "SCALAR"
        },
        {
            "bufferView" : 42,
            "componentType" : 5126,
            "count" : 80,
            "max" : [
                3.3333333333333335
            ],
            "min" : [
                0.041666666666666664
            ],
            "type" : "SCALAR"
        },
        {
            "bufferView" : 43,
            "componentType" : 5126,
            "count" : 80,
            "type" : "VEC3"
        }
    ],
    "bufferViews" : [
        {
            "buffer" : 0,
            "byteLength" : 14592,
            "byteOffset" : 0,
            "target" : 34962
        },
        {
            "buffer" : 0,
            "byteLength" : 9728,
            "byteOffset" : 14592,
            "target" : 34962
        },
        {
            "buffer" : 0,
            "byteLength" : 14592,
            "byteOffset" : 24320,
            "target" : 34962
        },
        {
            "buffer" : 0,
            "byteLength" : 2688,
            "byteOffset" : 38912,
            "target" : 34963
        },
        {
            "buffer" : 0,
            "byteLength" : 14592,
            "byteOffset" : 41600,
            "target" : 34962
        },
        {
            "buffer" : 0,
            "byteLength" : 14592,
            "byteOffset" : 56192,
            "target" : 34962
        },
        {
            "buffer" : 0,
            "byteLength" : 14592,
            "byteOffset" : 70784,
            "target" : 34962
        },
        {
            "buffer" : 0,
            "byteLength" : 14592,
            "byteOffset" : 85376,
            "target" : 34962
        },
        {
            "buffer" : 0,
            "byteLength" : 14592,
            "byteOffset" : 99968,
            "target" : 34962
        },
        {
            "buffer" : 0,
            "byteLength" : 14592,
            "byteOffset" : 114560,
            "target" : 34962
        },
        {
            "buffer" : 0,
            "byteLength" : 14592,
            "byteOffset" : 129152,
            "target" : 34962
        },
        {
            "buffer" : 0,
            "byteLength" : 14592,
            "byteOffset" : 143744,
            "target" : 34962
        },
        {
            "buffer" : 0,
            "byteLength" : 14592,
            "byteOffset" : 158336,
            "target" : 34962
        },
        {
            "buffer" : 0,
            "byteLength" : 14592,
            "byteOffset" : 172928,
            "target" : 34962
        },
        {
            "buffer" : 0,
            "byteLength" : 14592,
            "byteOffset" : 187520,
            "target" : 34962
        },
        {
            "buffer" : 0,
            "byteLength" : 14592,
            "byteOffset" : 202112,
            "target" : 34962
        },
        {
            "buffer" : 0,
            "byteLength" : 14592,
            "byteOffset" : 216704,
            "target" : 34962
        },
        {
            "buffer" : 0,
            "byteLength" : 14592,
            "byteOffset" : 231296,
            "target" : 34962
        },
        {
            "buffer" : 0,
            "byteLength" : 14592,
            "byteOffset" : 245888,
            "target" : 34962
        },
        {
            "buffer" : 0,
            "byteLength" : 14592,
            "byteOffset" : 260480,
            "target" : 34962
        },
        {
            "buffer" : 0,
            "byteLength" : 3192,
            "byteOffset" : 275072,
            "target" : 34962
        },
        {
            "buffer" : 0,
            "byteLength" : 2128,
            "byteOffset" : 278264,
            "target" : 34962
        },
        {
            "buffer" : 0,
            "byteLength" : 3192,
            "byteOffset" : 280392,
            "target" : 34962
        },
        {
            "buffer" : 0,
            "byteLength" : 576,
            "byteOffset" : 283584,
            "target" : 34963
        },
        {
            "buffer" : 0,
            "byteLength" : 3192,
            "byteOffset" : 284160,
            "target" : 34962
        },
        {
            "buffer" : 0,
            "byteLength" : 3192,
            "byteOffset" : 287352,
            "target" : 34962
        },
        {
            "buffer" : 0,
            "byteLength" : 3192,
            "byteOffset" : 290544,
            "target" : 34962
        },
        {
            "buffer" : 0,
            "byteLength" : 3192,
            "byteOffset" : 293736,
            "target" : 34962
        },
        {
            "buffer" : 0,
            "byteLength" : 3192,
            "byteOffset" : 296928,
            "target" : 34962
        },
        {
            "buffer" : 0,
            "byteLength" : 3192,
            "byteOffset" : 300120,
            "target" : 34962
        },
        {
            "buffer" : 0,
            "byteLength" : 3192,
            "byteOffset" : 303312,
            "target" : 34962
        },
        {
            "buffer" : 0,
            "byteLength" : 3192,
            "byteOffset" : 306504,
            "target" : 34962
        },
        {
            "buffer" : 0,
            "byteLength" : 3192,
            "byteOffset" : 309696,
            "target" : 34962
        },
        {
            "buffer" : 0,
            "byteLength" : 3192,
            "byteOffset" : 312888,
            "target" : 34962
        },
        {
            "buffer" : 0,
            "byteLength" : 3192,
            "byteOffset" : 316080,
            "target" : 34962
        },
        {
            "buffer" : 0,
            "byteLength" : 3192,
            "byteOffset" : 319272,
            "target" : 34962
        },
        {
            "buffer" : 0,
            "byteLength" : 3192,
            "byteOffset" : 322464,
            "target" : 34962
        },
        {
            "buffer" : 0,
            "byteLength" : 3192,
            "byteOffset" : 325656,
            "target" : 34962
        },
        {
            "buffer" : 0,
            "byteLength" : 3192,
            "byteOffset" : 328848,
            "target" : 34962
        },
        {
            "buffer" : 0,
            "byteLength" : 3192,
            "byteOffset" : 332040,
            "target" : 34962
        },
        {
            "buffer" : 0,
            "byteLength" : 80,
            "byteOffset" : 335232
        },
        {
            "buffer" : 0,
            "byteLength" : 640,
            "byteOffset" : 335312
        },
        {
            "buffer" : 0,
            "byteLength" : 320,
            "byteOffset" : 335952
        },
        {
            "buffer" : 0,
            "byteLength" : 960,
            "byteOffset" : 336272
        }
    ],
    "buffers" : [
        {
            "byteLength" : 337232,
            "uri" : "untitled.bin"
        }
    ]
}
